<svg width="48" height="48" viewBox="0 0 48 48" fill="none" xmlns="http://www.w3.org/2000/svg">
<path d="M47.2258 10.4517H44.1291V8.90333C44.1291 7.89767 43.3316 7.35495 42.5807 7.35495H20.1291V2.70973C20.1291 2.28242 19.783 1.93555 19.3549 1.93555H0.774188C0.346031 1.93555 0 2.28242 0 2.70973V11.2259V45.2904C0 45.7186 0.346031 46.0646 0.774188 46.0646H47.2258C47.654 46.0646 48 45.7186 48 45.2904V11.2259C48 10.7985 47.654 10.4517 47.2258 10.4517ZM20.1291 8.90333H42.5807V10.4517H20.1291V8.90333ZM1.54838 3.48392H18.5806V10.4517H1.54838V3.48392ZM46.4516 44.5162H1.54838V12.0001H19.3548H46.4515V44.5162H46.4516Z" fill="url(#paint0_linear_8436_18961)"/>
<path d="M41.8069 17.4199H35.6133C35.1852 17.4199 34.8391 17.7668 34.8391 18.1941V20.5167H27.8715V18.1941C27.8715 17.7668 27.5254 17.4199 27.0973 17.4199H20.9037C20.4755 17.4199 20.1295 17.7668 20.1295 18.1941V20.5167H13.1617V18.1941C13.1617 17.7668 12.8157 17.4199 12.3875 17.4199H6.19411C5.76595 17.4199 5.41992 17.7668 5.41992 18.1941V24.3877C5.41992 24.815 5.76595 25.1619 6.19411 25.1619H12.3877C12.8159 25.1619 13.1619 24.815 13.1619 24.3877V22.0651H17.7017C15.4403 23.598 12.6757 26.4571 12.4094 31.3555H10.0651C9.63698 31.3555 9.29095 31.7024 9.29095 32.1297V38.3233C9.29095 38.7506 9.63698 39.0975 10.0651 39.0975H16.2587C16.6869 39.0975 17.0329 38.7506 17.0329 38.3233V32.1297C17.0329 31.7024 16.6869 31.3555 16.2587 31.3555H13.9787C14.3233 25.7937 18.2399 23.3062 20.1297 22.4322V24.3878C20.1297 24.8151 20.4757 25.162 20.9039 25.162H27.0975C27.5256 25.162 27.8716 24.8151 27.8716 24.3878V22.4422C29.7537 23.3333 33.6727 25.854 34.0211 31.3555H31.7426C31.3144 31.3555 30.9684 31.7024 30.9684 32.1297V38.3233C30.9684 38.7506 31.3144 39.0975 31.7426 39.0975H37.9362C38.3643 39.0975 38.7104 38.7506 38.7104 38.3233V32.1297C38.7104 31.7024 38.3643 31.3555 37.9362 31.3555H35.5911C35.3248 26.4571 32.5609 23.598 30.2987 22.0651H34.8394V24.3877C34.8394 24.815 35.1855 25.1619 35.6136 25.1619H41.8072C42.2354 25.1619 42.5814 24.815 42.5814 24.3877V18.1941C42.5812 17.7668 42.2351 17.4199 41.8069 17.4199ZM11.6134 23.6135H6.9683V18.9684H11.6134V23.6135ZM15.4844 32.9039V37.549H10.8392V32.9039H15.4844ZM26.3231 23.6135H21.678V18.9684H26.3231V23.6135ZM37.1618 32.9039V37.549H32.5167V32.9039H37.1618ZM41.0327 23.6135H36.3876V18.9684H41.0327V23.6135Z" fill="url(#paint1_linear_8436_18961)"/>
<defs>
<linearGradient id="paint0_linear_8436_18961" x1="43.5797" y1="26.5906" x2="-3.22226" y2="25.3785" gradientUnits="userSpaceOnUse">
<stop stop-color="#113F91"/>
<stop offset="1" stop-color="#196CFA"/>
</linearGradient>
<linearGradient id="paint1_linear_8436_18961" x1="39.1592" y1="29.5312" x2="2.96126" y2="28.0538" gradientUnits="userSpaceOnUse">
<stop stop-color="#113F91"/>
<stop offset="1" stop-color="#196CFA"/>
</linearGradient>
</defs>
</svg>
