<svg width="48" height="48" viewBox="0 0 48 48" fill="none" xmlns="http://www.w3.org/2000/svg">
<g clip-path="url(#clip0_8612_28312)">
<path d="M43.4437 6.63562H43.2084C43.2356 6.40687 43.2506 6.17438 43.2506 5.93813C43.2506 2.66344 40.5853 0 37.3097 0C34.035 0 31.3716 2.66344 31.3716 5.93813C31.3716 6.17438 31.3866 6.40687 31.4137 6.63562H16.5863C16.6134 6.40687 16.6284 6.17438 16.6284 5.93813C16.6284 2.66344 13.9631 0 10.6875 0C7.41281 0 4.74937 2.66344 4.74937 5.93813C4.74937 6.17438 4.76437 6.40687 4.79156 6.63562H4.55625C3.03844 6.63562 1.80469 7.87031 1.80469 9.38719V26.685C1.80469 27.0994 2.14031 27.4359 2.55563 27.4359C2.97094 27.4359 3.30656 27.1003 3.30656 26.685V9.38719C3.30656 8.69813 3.86719 8.13656 4.55719 8.13656H5.17313C6.04875 10.3266 8.19 11.8781 10.6875 11.8781C13.1869 11.8781 15.3281 10.3266 16.2047 8.13656H31.7953C32.6709 10.3266 34.8122 11.8781 37.3097 11.8781C39.8091 11.8781 41.9503 10.3266 42.8269 8.13656H43.4428C44.1319 8.13656 44.6934 8.69719 44.6934 9.38719V32.7075H3.30656V28.7466C3.30656 28.3322 2.97094 27.9956 2.55563 27.9956C2.14031 27.9956 1.80469 28.3313 1.80469 28.7466V37.5956C1.80469 39.1134 3.03937 40.3472 4.55625 40.3472H18.0384L17.1244 46.5009H14.6119C14.1975 46.5009 13.8609 46.8366 13.8609 47.2519C13.8609 47.6672 14.1966 48.0028 14.6119 48.0028H17.7712H30.2269H33.3862C33.8006 48.0028 34.1372 47.6672 34.1372 47.2519C34.1372 46.8366 33.8016 46.5009 33.3862 46.5009H30.8738L29.9597 40.3491H43.4437C44.9616 40.3491 46.1953 39.1144 46.1953 37.5975V9.38812C46.1953 7.87031 44.9606 6.63562 43.4437 6.63562ZM10.6875 10.3772C8.24156 10.3772 6.25125 8.38594 6.25125 5.93813C6.25031 3.49125 8.24062 1.50094 10.6875 1.50094C13.1353 1.50094 15.1266 3.49125 15.1266 5.93719C15.1266 8.38594 13.1353 10.3772 10.6875 10.3772ZM37.3097 10.3772C34.8638 10.3772 32.8734 8.38594 32.8734 5.93813C32.8734 3.49219 34.8638 1.50188 37.3097 1.50188C39.7575 1.50188 41.7487 3.49219 41.7487 5.93813C41.7497 8.38594 39.7575 10.3772 37.3097 10.3772ZM29.3569 46.5009H18.6431L19.5572 40.3491H28.4428L29.3569 46.5009ZM43.4437 38.8472H4.55625C3.86719 38.8472 3.30562 38.2866 3.30562 37.5966V34.2094H44.6934V37.5966C44.6934 38.2856 44.1328 38.8472 43.4437 38.8472ZM23.9991 24.5522C26.2753 24.5522 28.1278 22.7006 28.1278 20.4234C28.1278 18.1462 26.2763 16.2947 23.9991 16.2947C21.7219 16.2947 19.8703 18.1462 19.8703 20.4234C19.8703 22.7006 21.7219 24.5522 23.9991 24.5522ZM23.9991 17.7966C25.4475 17.7966 26.6259 18.975 26.6259 20.4234C26.6259 21.8719 25.4475 23.0503 23.9991 23.0503C22.5506 23.0503 21.3722 21.8719 21.3722 20.4234C21.3722 18.975 22.5506 17.7966 23.9991 17.7966ZM40.5647 4.8L37.2244 8.14031C37.0781 8.28656 36.8859 8.36063 36.6937 8.36063C36.5016 8.36063 36.3094 8.2875 36.1631 8.14031L34.0584 6.03563C33.765 5.74219 33.765 5.26687 34.0584 4.97344C34.3519 4.68 34.8272 4.68 35.1206 4.97344L36.6947 6.5475L39.5044 3.73781C39.7978 3.44437 40.2731 3.44437 40.5666 3.73781C40.8581 4.03125 40.8581 4.50656 40.5647 4.8ZM12.8869 4.8L11.7478 5.94L12.8869 7.08C13.1803 7.37344 13.1794 7.84875 12.8869 8.14125C12.7406 8.2875 12.5484 8.36063 12.3563 8.36063C12.1641 8.36063 11.9719 8.2875 11.8256 8.14031L10.6875 7.00125L9.54938 8.14031C9.40313 8.28656 9.21094 8.36063 9.01875 8.36063C8.82656 8.36063 8.63438 8.2875 8.48812 8.14125C8.19469 7.84781 8.19469 7.3725 8.48812 7.08L9.62719 5.94L8.48719 4.8C8.19375 4.50656 8.19469 4.03125 8.48719 3.73875C8.78062 3.44531 9.25594 3.44625 9.54844 3.73875L10.6875 4.87687L11.8256 3.73781C12.1181 3.44437 12.5944 3.44437 12.8869 3.73781C13.1803 4.03125 13.1803 4.50656 12.8869 4.8ZM10.6875 13.4944C10.2731 13.4944 9.93656 13.83 9.93656 14.2453V20.4244C9.93656 20.8388 10.2722 21.1753 10.6875 21.1753H14.2444V21.4266C14.2444 22.0528 14.6456 22.6031 15.2409 22.7944L16.5253 23.2125C16.5881 23.3831 16.6603 23.5566 16.7428 23.7356L16.1269 24.9441C15.8456 25.5009 15.9525 26.1722 16.3941 26.6128L17.8106 28.0294C18.2512 28.47 18.9225 28.5778 19.4822 28.2947L20.6887 27.6797C20.85 27.7537 21.0206 27.825 21.2119 27.8972L21.6291 29.1788C21.8213 29.7769 22.3706 30.1781 22.9978 30.1781H25.0012C25.6294 30.1781 26.1806 29.7759 26.3719 29.1806L26.7872 27.8981C26.9522 27.8381 27.1247 27.7659 27.3113 27.6806L28.5216 28.2975C29.0822 28.5778 29.7534 28.4691 30.1875 28.0294L31.6106 26.6091C32.0503 26.1638 32.1544 25.4925 31.8703 24.9403L31.2572 23.7375C31.3313 23.5772 31.4025 23.4056 31.4756 23.2116L32.7572 22.7944C33.3534 22.6031 33.7537 22.0528 33.7537 21.4256V21.1744H37.3106C37.725 21.1744 38.0616 20.8387 38.0616 20.4234V14.2444C38.0616 13.83 37.7259 13.4934 37.3106 13.4934C36.8953 13.4934 36.5597 13.8291 36.5597 14.2444V19.6725H33.7537V19.4212C33.7537 18.7922 33.3534 18.2419 32.7591 18.0506L31.4756 17.6353C31.4044 17.4469 31.3331 17.2734 31.2581 17.1084L31.8713 15.9066C32.1562 15.3488 32.0503 14.6766 31.6087 14.235L30.1875 12.8166C29.7459 12.375 29.0738 12.2691 28.5159 12.5541L27.3141 13.1672C27.1472 13.0912 26.9747 13.02 26.7872 12.9487L26.3719 11.6672C26.1806 11.0709 25.6294 10.6706 25.0003 10.6706H22.9969C22.3697 10.6706 21.8194 11.0709 21.6291 11.6644L21.21 12.9487C21.0169 13.0209 20.8434 13.0941 20.6841 13.1672L19.4831 12.555C18.9291 12.27 18.2569 12.3741 17.8088 12.8175L16.3959 14.2331C15.9534 14.6709 15.8438 15.3412 16.1269 15.9084L16.7409 17.1131C16.6547 17.3006 16.5834 17.4731 16.5234 17.6372L15.2428 18.0525C14.6447 18.2447 14.2434 18.7959 14.2434 19.4241V19.6753H11.4375V14.2472C11.4384 13.8309 11.1019 13.4944 10.6875 13.4944ZM15.7463 19.4662L17.0241 19.0519C17.4469 18.9113 17.7656 18.6037 17.9222 18.1866C17.9241 18.1828 17.925 18.1791 17.9259 18.1753C17.9766 18.0337 18.0394 17.8819 18.1209 17.7056C18.3075 17.2931 18.2972 16.8469 18.0928 16.4541L17.4862 15.2644L18.8391 13.9097L20.0353 14.52C20.4338 14.7187 20.8772 14.7272 21.2841 14.5425C21.2869 14.5416 21.2897 14.5397 21.2925 14.5387C21.4331 14.4731 21.5859 14.4094 21.7537 14.3466C22.1737 14.1937 22.4925 13.8619 22.6284 13.4409L23.0428 12.1706H24.9563L25.3697 13.4456C25.5122 13.8731 25.8206 14.1928 26.2388 14.3456C26.4094 14.4094 26.5641 14.4731 26.7038 14.5378C27.1116 14.7309 27.5597 14.7234 27.9666 14.5172L29.1581 13.9097L30.5109 15.2625L29.9025 16.4559C29.7009 16.8534 29.6925 17.2969 29.88 17.7103C29.9475 17.8575 30.0122 18.0122 30.0741 18.1781C30.2269 18.5981 30.5466 18.9084 30.9816 19.0528L32.2509 19.4634V21.3769L30.9844 21.7894C30.5588 21.9253 30.2278 22.245 30.0769 22.6594C30.0122 22.8337 29.9484 22.9866 29.8828 23.1262C29.8819 23.1291 29.88 23.1319 29.8791 23.1347C29.6934 23.5444 29.7019 23.9897 29.9044 24.3891L30.5119 25.5806L29.1572 26.9334L27.9731 26.3297C27.5756 26.1225 27.1284 26.1112 26.7113 26.3006C26.5397 26.3794 26.3878 26.4431 26.2463 26.4938C26.2425 26.4947 26.2388 26.4966 26.235 26.4975C25.8178 26.6541 25.5103 26.9738 25.3678 27.4022L24.9563 28.6744H23.0438L22.6303 27.405C22.4934 26.9794 22.1859 26.6578 21.7603 26.4975C21.5859 26.4328 21.4331 26.3691 21.2934 26.3034C21.2906 26.3016 21.2878 26.3006 21.2841 26.2997C20.8734 26.1141 20.4272 26.1244 20.0306 26.3278L18.8409 26.9344L17.4872 25.5806L18.0909 24.3966C18.2981 23.9981 18.3094 23.55 18.1219 23.1366C18.1209 23.1337 18.1191 23.1309 18.1181 23.1281C18.0422 22.9669 17.9784 22.8131 17.9269 22.6706C17.9259 22.6669 17.9241 22.6631 17.9231 22.6594C17.7637 22.2366 17.4422 21.9281 17.0203 21.7931L15.7472 21.3778V19.4662H15.7463Z" fill="url(#paint0_linear_8612_28312)"/>
</g>
<defs>
<linearGradient id="paint0_linear_8612_28312" x1="42.1074" y1="26.8193" x2="-1.18332" y2="25.8661" gradientUnits="userSpaceOnUse">
<stop stop-color="#113F91"/>
<stop offset="1" stop-color="#196CFA"/>
</linearGradient>
<clipPath id="clip0_8612_28312">
<rect width="48" height="48" fill="white"/>
</clipPath>
</defs>
</svg>
